<svg xmlns="http://www.w3.org/2000/svg" width="58.776" height="56.546" viewBox="0 0 58.776 56.546"><defs><style>.a{fill:#208e76;}</style></defs><path class="a" d="M57.317,22.674a18.318,18.318,0,0,1-.627-3.213,11.729,11.729,0,0,0-1.7-5.594,11.816,11.816,0,0,0-4.81-3.35A18.857,18.857,0,0,1,47.335,8.96a18.465,18.465,0,0,1-2.322-2.194A11.779,11.779,0,0,0,40.292,3.19a11.638,11.638,0,0,0-5.77.118,19.338,19.338,0,0,1-3.3.411,19.337,19.337,0,0,1-3.311-.411,11.638,11.638,0,0,0-5.77-.118,11.778,11.778,0,0,0-4.722,3.576A18.466,18.466,0,0,1,15.1,8.96a18.857,18.857,0,0,1-2.841,1.558,11.724,11.724,0,0,0-4.81,3.35,11.677,11.677,0,0,0-1.695,5.594,18.319,18.319,0,0,1-.617,3.213,17.437,17.437,0,0,1-1.342,2.831,11.549,11.549,0,0,0-1.959,5.642A11.549,11.549,0,0,0,3.792,36.79a17.437,17.437,0,0,1,1.342,2.831,18.319,18.319,0,0,1,.617,3.213,11.9,11.9,0,0,0,1.7,5.594c1.185,1.675,3.027,2.508,4.81,3.36a18.015,18.015,0,0,1,2.841,1.548,18.465,18.465,0,0,1,2.322,2.194,11.778,11.778,0,0,0,4.722,3.576,7.131,7.131,0,0,0,2.214.323,19.083,19.083,0,0,0,3.556-.441,19.338,19.338,0,0,1,3.3-.411,19.338,19.338,0,0,1,3.311.411,11.647,11.647,0,0,0,5.77.118,11.778,11.778,0,0,0,4.722-3.576,18.467,18.467,0,0,1,2.322-2.194,18.015,18.015,0,0,1,2.841-1.548c1.783-.852,3.625-1.724,4.81-3.36a11.8,11.8,0,0,0,1.7-5.594,18.319,18.319,0,0,1,.617-3.213,17.437,17.437,0,0,1,1.332-2.831,11.549,11.549,0,0,0,1.959-5.642,11.549,11.549,0,0,0-1.959-5.642A17.437,17.437,0,0,1,57.317,22.674ZM56.945,35.85a19.534,19.534,0,0,0-1.5,3.135,20,20,0,0,0-.686,3.556,10.207,10.207,0,0,1-1.352,4.692,10.237,10.237,0,0,1-4.065,2.743,19.407,19.407,0,0,0-3.154,1.744A18.945,18.945,0,0,0,43.6,54.149a10.3,10.3,0,0,1-3.918,3.056,10.266,10.266,0,0,1-4.81-.176,20.141,20.141,0,0,0-3.654-.411,20.142,20.142,0,0,0-3.673.451,10.266,10.266,0,0,1-4.81.176c-1.469-.48-2.645-1.734-3.918-3.056a18.945,18.945,0,0,0-2.567-2.469A19.406,19.406,0,0,0,13.1,49.976a10.237,10.237,0,0,1-4.065-2.743A10.207,10.207,0,0,1,7.71,42.58,20,20,0,0,0,7,38.985,19.533,19.533,0,0,0,5.5,35.85a10.345,10.345,0,0,1-1.7-4.7,10.345,10.345,0,0,1,1.7-4.7A19.533,19.533,0,0,0,7,23.311a20,20,0,0,0,.715-3.6,10.207,10.207,0,0,1,1.352-4.692,10.237,10.237,0,0,1,4.065-2.743,19.406,19.406,0,0,0,3.125-1.7,18.946,18.946,0,0,0,2.586-2.429,10.3,10.3,0,0,1,3.918-3.056,5.221,5.221,0,0,1,1.607-.264,18.25,18.25,0,0,1,3.184.4,20.141,20.141,0,0,0,3.673.451,20.141,20.141,0,0,0,3.673-.451,10.266,10.266,0,0,1,4.81-.176c1.469.48,2.645,1.734,3.918,3.056a18.946,18.946,0,0,0,2.567,2.469,19.405,19.405,0,0,0,3.154,1.744,10.237,10.237,0,0,1,4.065,2.743,10.207,10.207,0,0,1,1.322,4.653,20,20,0,0,0,.686,3.556,19.533,19.533,0,0,0,1.5,3.174,10.344,10.344,0,0,1,1.734,4.7,10.345,10.345,0,0,1-1.7,4.7Z" transform="translate(-1.833 -2.883)"/><path class="a" d="M31.47,15.577H27.552a.98.98,0,0,0-.98.98V37.128a.98.98,0,0,0,.98.98H31.47a.98.98,0,0,0,.98-.98V16.556A.98.98,0,0,0,31.47,15.577Zm-.98,20.572H28.531V17.536H30.49Z" transform="translate(-0.123 -2.006)"/><path class="a" d="M29.511,38.483a2.939,2.939,0,1,0,2.939,2.939A2.939,2.939,0,0,0,29.511,38.483Zm0,3.918a.98.98,0,1,1,.98-.98A.98.98,0,0,1,29.511,42.4Z" transform="translate(-0.123 -0.423)"/></svg>