<svg xmlns="http://www.w3.org/2000/svg" width="61.165" height="50.655" viewBox="0 0 61.165 50.655"><defs><style>.a{fill:#fff;}</style></defs><path class="a" d="M58.3,18.643H43.962V12.909h.683a1.137,1.137,0,0,1,1.229.967v2.856h1.911V13.876A3.021,3.021,0,0,0,44.645,11H20.07A2.871,2.871,0,0,0,17.2,13.865V32.089L14,29.633h1.3V27.722H13.318a2.789,2.789,0,0,0-2.806,2.766V49.8a2.789,2.789,0,0,0,2.806,2.766H47.847A2.789,2.789,0,0,0,50.652,49.8V30.488a2.789,2.789,0,0,0-2.806-2.766H45.874v1.911h1.3l-3.207,2.455V20.554H58.3a.957.957,0,0,1,.956.956V51.137H54.475a.956.956,0,1,0,0,1.911h4.779V54.96a.957.957,0,0,1-.956.956H2.867a.957.957,0,0,1-.956-.956V53.048H6.69a.956.956,0,0,0,0-1.911H1.911V21.51a.957.957,0,0,1,.956-.956H15.291V18.643H2.867A2.87,2.87,0,0,0,0,21.51V54.96a2.87,2.87,0,0,0,2.867,2.867H25.8v1.911H21.5a.956.956,0,0,0,0,1.911H39.662a.956.956,0,0,0,0-1.911h-4.3V57.827H58.3a2.87,2.87,0,0,0,2.867-2.867V21.51A2.87,2.87,0,0,0,58.3,18.643ZM14,50.659,29.97,38.427a1.076,1.076,0,0,1,1.229.005L47.169,50.659Zm22.587-12.92,1.572,1.2,10.586-8.106V49.455L32.323,36.885c-.023-.018-.047-.034-.071-.049a2.982,2.982,0,0,0-3.411.049L12.424,49.455V30.837l10.587,8.105,1.571-1.2-5.468-4.187V13.865a.957.957,0,0,1,.956-.957s21.9.007,21.981.017V33.552Zm-3.133,22H27.715V57.827H33.45Z" transform="translate(0 -10.995)"/><path class="a" d="M62.38,24.907H49.956a.956.956,0,1,0,0,1.911H62.38a.956.956,0,0,0,0-1.911Z" transform="translate(-25.585 -18.259)"/><path class="a" d="M62.38,32.907H49.956a.956.956,0,1,0,0,1.911H62.38a.956.956,0,1,0,0-1.911Z" transform="translate(-25.585 -22.436)"/><path class="a" d="M62.38,40.907H49.956a.956.956,0,1,0,0,1.911H62.38a.956.956,0,0,0,0-1.911Z" transform="translate(-25.585 -26.613)"/><path class="a" d="M62.38,48.907H49.956a.956.956,0,1,0,0,1.911H62.38a.956.956,0,1,0,0-1.911Z" transform="translate(-25.585 -30.791)"/></svg>