<svg xmlns="http://www.w3.org/2000/svg" width="55.431" height="60" viewBox="0 0 55.431 60"><defs><style>.a{fill:#208e76;}</style></defs><path class="a" d="M16.993,50.976a1.182,1.182,0,0,0-1.52.687l-2.521,6.667a13.362,13.362,0,0,1-1.115-1.609,1.551,1.551,0,0,0-1.72-.711,18.012,18.012,0,0,1-2.283.434l2.346-6.2a1.179,1.179,0,1,0-2.206-.835L4.385,58.892l1.693.013a17.323,17.323,0,0,0,4.044-.471,13.616,13.616,0,0,0,2.5,2.945L13.9,62.487l3.777-9.99a1.18,1.18,0,0,0-.686-1.52Z" transform="translate(-3.671 -3.882)"/><path class="a" d="M25.671,48.516a1.179,1.179,0,0,0-.686,1.52l2.946,7.79a18.082,18.082,0,0,1-2.286-.435,1.548,1.548,0,0,0-1.719.716,13.235,13.235,0,0,1-1.111,1.606L21.4,55.982a1.179,1.179,0,1,0-2.206.834l2.667,7.054,1.278-1.109a13.572,13.572,0,0,0,2.5-2.945,18.116,18.116,0,0,0,4.043.471l1.693-.013L27.192,49.2A1.179,1.179,0,0,0,25.671,48.516Z" transform="translate(-4.502 -3.871)"/><path class="a" d="M4.5,39.473A2.441,2.441,0,0,0,5.892,40.85,2.536,2.536,0,0,1,7.5,43.1a2.454,2.454,0,0,0,2.75,2.332,2.54,2.54,0,0,1,2.477,1.215,2.453,2.453,0,0,0,3.527.754,2.513,2.513,0,0,1,1.167-.444,2.511,2.511,0,0,1,1.162.441,2.469,2.469,0,0,0,1.94.4,2.444,2.444,0,0,0,1.591-1.15,2.445,2.445,0,0,1,.81-.833,2.49,2.49,0,0,1,1.664-.382A2.454,2.454,0,0,0,27.344,43.1a2.512,2.512,0,0,1,1.611-2.245,2.458,2.458,0,0,0,1.319-3.357,2.49,2.49,0,0,1-.255-1.129,2.543,2.543,0,0,1,.61-1.608,2.452,2.452,0,0,0-.421-3.577,2.516,2.516,0,0,1-.983-2.582,2.455,2.455,0,0,0-2.068-2.956,2.519,2.519,0,0,1-2.085-1.807,2.448,2.448,0,0,0-3.211-1.629,2.552,2.552,0,0,1-1.155.147,2.523,2.523,0,0,1-1.547-.762,2.4,2.4,0,0,0-3.474.007,2.512,2.512,0,0,1-1.533.754,2.543,2.543,0,0,1-1.156-.143,2.449,2.449,0,0,0-3.217,1.622,2.516,2.516,0,0,1-2.089,1.812A2.455,2.455,0,0,0,5.623,28.6a2.517,2.517,0,0,1-.981,2.581,2.452,2.452,0,0,0-.426,3.578A2.515,2.515,0,0,1,4.572,37.5,2.466,2.466,0,0,0,4.5,39.473Zm1.522-6.384A4.829,4.829,0,0,0,7.5,31.381a4.888,4.888,0,0,0,.431-3.288c-.012-.05.006-.09.074-.111a4.908,4.908,0,0,0,2.107-.809,4.76,4.76,0,0,0,.456-.354,4.9,4.9,0,0,0,1.32-1.865c.044-.109.085-.22.12-.333.018-.056.029-.115.048-.17.032-.092.178-.01.233.009q.163.056.33.1a4.832,4.832,0,0,0,1.357.164c.144,0,.287-.012.43-.028a5.259,5.259,0,0,0,3.057-1.468,4.874,4.874,0,0,0,5.22,1.189c.091-.036.118.031.12.056a4.886,4.886,0,0,0,3.748,3.458l.161.029c.074.012.24.007.213.126a4.877,4.877,0,0,0,1.9,5l.017.131a4.915,4.915,0,0,0-1.179,3.11,4.841,4.841,0,0,0,.493,2.2.1.1,0,0,1-.045.121,4.9,4.9,0,0,0-2.513,2.185,4.851,4.851,0,0,0-.582,1.826c-.012.115-.034.424-.034.424s-.241-.014-.314-.019a4.872,4.872,0,0,0-3.011.759,4.78,4.78,0,0,0-1.572,1.628l-.035.065-.1-.049a4.886,4.886,0,0,0-2.435-.875l-.089-.006-.089.006a4.877,4.877,0,0,0-2.435.875.087.087,0,0,1-.136-.022A4.805,4.805,0,0,0,13.2,43.828a4.884,4.884,0,0,0-3.234-.741c-.057,0-.1-.018-.1-.082a4.813,4.813,0,0,0-.613-2.172,4.974,4.974,0,0,0-.307-.484,4.877,4.877,0,0,0-1.718-1.482c-.094-.048-.19-.092-.287-.133L6.79,38.67c-.038-.016-.1-.028-.115-.073a.076.076,0,0,1,.015-.065.582.582,0,0,0,.035-.067q.035-.075.068-.151.065-.152.12-.307a4.8,4.8,0,0,0,.174-.633,4.876,4.876,0,0,0,.087-.655q.013-.2.01-.393A4.891,4.891,0,0,0,6,33.216a.089.089,0,0,1,.024-.127Z" transform="translate(-3.628 -2.315)"/><path class="a" d="M51.007,27.813H35.276a1.18,1.18,0,1,0,0,2.359H51.007a1.18,1.18,0,1,0,0-2.359Z" transform="translate(-5.347 -2.707)"/><path class="a" d="M51.082,38.093H36.606a1.18,1.18,0,1,0,0,2.359H51.082a1.18,1.18,0,0,0,0-2.359Z" transform="translate(-5.422 -3.287)"/><path class="a" d="M59.277,14.409a1.147,1.147,0,0,0-.417-.637c-.077-.1-.143-.2-.231-.3L48.8,2.69a4.531,4.531,0,0,0-3.356-1.483H23.032a6.046,6.046,0,0,0-6.039,6.039V16.21a1.18,1.18,0,1,0,2.359,0V7.246a3.685,3.685,0,0,1,3.68-3.68H45.442a2.17,2.17,0,0,1,1.61.71l8.422,9.237h-4.35a3.68,3.68,0,0,1-3.676-3.676V7.492a1.18,1.18,0,1,0-2.359,0V9.837a6.042,6.042,0,0,0,6.035,6.035h6.223a2.181,2.181,0,0,1,.106.659v28.62a3.665,3.665,0,0,1-3.661,3.661H32.156a1.18,1.18,0,1,0,0,2.359H53.793a6.027,6.027,0,0,0,6.02-6.02V16.531A4.516,4.516,0,0,0,59.277,14.409Z" transform="translate(-4.382 -1.207)"/></svg>