<svg xmlns="http://www.w3.org/2000/svg" xmlns:xlink="http://www.w3.org/1999/xlink" width="579.068" height="588.22" viewBox="0 0 579.068 588.22"><defs><style>.a{fill:#677975;opacity:0.091;}.b{fill:#1c3a27;}.c{fill:#f2f2f2;}.d{opacity:0.7;}.e{fill:url(#a);}.f{fill:#62c976;}.g{opacity:0.1;}.h{fill:#ccc;}.i,.k{fill:none;stroke-miterlimit:10;}.i{stroke:#e0e0e0;stroke-width:8px;}.j{fill:#729671;}.k{stroke:#bdbdbd;stroke-width:5px;}.l{fill:#208e76;}.m{fill:#76a375;}.n{opacity:0.05;}.o{fill:#d5845f;}.p{fill:#333;}.q{fill:#e0e0e0;}.r{fill:#536160;}</style><linearGradient id="a" x1="0.5" y1="1" x2="0.5" gradientUnits="objectBoundingBox"><stop offset="0" stop-color="gray" stop-opacity="0.251"/><stop offset="0.535" stop-color="gray" stop-opacity="0.122"/><stop offset="1" stop-color="gray" stop-opacity="0.102"/></linearGradient></defs><g transform="translate(-62.466 -105)"><path class="a" d="M214.395,0c209.029-11.962,43.02,158.991,51.084,225.9s65.094,172.856-42.916,218.19S-60.36,292.606-56.692,229.336,5.366,11.962,214.395,0Z" transform="translate(106.322 311.408) rotate(-40)"/><g transform="translate(228.414 280.904)"><path class="b" d="M211.813,613.391c0,16.9-10.046,22.8-22.438,22.8-.289,0-.575,0-.861-.011-.574-.012-1.143-.037-1.7-.078-11.185-.791-19.874-7-19.874-22.711,0-16.262,20.778-36.783,22.346-38.307l0,0c.059-.059.09-.089.09-.089S211.813,596.491,211.813,613.391Z" transform="translate(-205.536 -388.559)"/><path class="c" d="M209.692,633.605l8.208-11.467-8.228,12.725-.022,1.316c-.574-.012-1.143-.037-1.7-.078l.884-16.906-.006-.131.016-.025.083-1.6-8.248-12.758,8.273,11.56.02.339.669-12.774-7.061-13.182,7.147,10.938.7-26.482,0-.09v.089l-.115,20.883,7.029-8.279-7.058,10.077-.186,11.437,6.564-10.975-6.592,12.66-.1,6.358,9.528-15.278-9.564,17.5Z" transform="translate(-226.671 -388.559)"/><g class="d" transform="translate(291.178 102.316)"><path class="e" d="M949.661,353.872V349.8H929.312v18.823a3.968,3.968,0,0,0,3.968,3.968h12.413a3.968,3.968,0,0,0,3.968-3.968v-4.172a5.291,5.291,0,1,0,0-10.581Zm0,8.546v-6.512a3.256,3.256,0,1,1,0,6.512Z" transform="translate(-929.312 -349.802)"/></g><path class="f" d="M973.933,362.4a4.831,4.831,0,1,0,4.831,4.831A4.831,4.831,0,0,0,973.933,362.4Zm0,7.8a2.973,2.973,0,1,1,2.973-2.973A2.973,2.973,0,0,1,973.933,370.206Z" transform="translate(-663.062 -255.38)"/><path class="g" d="M973.933,362.393a4.835,4.835,0,0,0,0,9.671,5,5,0,0,0,3.416-1.415,4.645,4.645,0,0,0,1.415-3.416A4.839,4.839,0,0,0,973.933,362.393Zm0,7.813a2.973,2.973,0,1,1,2.973-2.973A2.973,2.973,0,0,1,973.933,370.206Z" transform="translate(-663.062 -255.38)"/><path class="f" d="M782.493,276.563h18.579v17.167a3.642,3.642,0,0,1-3.642,3.642h-11.3a3.642,3.642,0,0,1-3.642-3.642Z" transform="translate(-490.201 -173.255)"/><path class="g" d="M967.006,352.455v17.186a3.623,3.623,0,0,1-3.623,3.623h1.858a3.623,3.623,0,0,0,3.623-3.623V352.455Z" transform="translate(-659.479 -249.148)"/><path class="h" d="M940.619,314.576a1.085,1.085,0,0,0-.82.417c-.244.442.2.94.6,1.244a7.992,7.992,0,0,1,2.035,1.895,2.375,2.375,0,0,1,.112,2.626c-.722.98-2.446,1.19-2.613,2.4-.107.774.562,1.435,1.24,1.823,1.674.959,3.831,1.214,5.043,2.715a3.909,3.909,0,0,1,2.741-1.882c1.118-.255,2.28-.236,3.413-.408a1.18,1.18,0,0,0,.942-.5c.317-.643-.586-1.414-.275-2.06.237-.491.934-.453,1.443-.65a1.879,1.879,0,0,0,.935-2.244,4.225,4.225,0,0,0-1.6-2.075,17.9,17.9,0,0,0-6.437-2.975,16.5,16.5,0,0,0-3.421-.792A17.1,17.1,0,0,0,940.619,314.576Z" transform="translate(-644.66 -225.12)"/><line class="i" x1="38.848" y2="121.027" transform="translate(126.708 128.504)"/><g class="d" transform="translate(71.486 0)"><path class="e" d="M465.347,339.054c-4.779.277-9.036,4.28-9.036,4.28l-2.058-5.106-.168.055c1.006-4.4,21.466-95.148.984-102.971-15.738-6.011-32.432-13.45-45.511-13.171V200.7h18.337v-.764h14.516c2.783-1.988-1.261-3.355-5.78-4.209a4.129,4.129,0,0,0,.484-.683l23.25-41.713s5.348-8.786,1.91-12.988-8.4,10.7-8.4,10.7l-19.1,27.5s-19.278-20.093-31.541-30.085a21.467,21.467,0,0,0-4.565-3.45c-2.239-1.515-3.933-2.3-4.769-1.992-.009,0-.015.008-.024.012a21.4,21.4,0,0,0-5.706-.776h-1.528v-3.134a24.507,24.507,0,0,0,15.138-14.344,27.528,27.528,0,0,0,2.181-23.969,1.59,1.59,0,0,0,.643-.223,2.346,2.346,0,0,0,.694-2.24,17.017,17.017,0,0,0-8.637-13.305c-1.936-1.058-4.152-1.788-5.579-3.47-1.226-1.445-1.742-3.467-3.226-4.646-1.763-1.4-4.31-1.16-6.473-.535a23.556,23.556,0,0,0-6.757,3.188c-2.34,1.6-4.452,3.662-7.146,4.549-1.914.63-3.99.618-5.917,1.21a9.938,9.938,0,0,0-6.394,6.236,12.981,12.981,0,0,0-.547,4.874,27.348,27.348,0,0,0-2.744,6.243c-.144.078-.289.154-.432.234l.419-.188a27.5,27.5,0,0,0,7.748,28.049,24.486,24.486,0,0,0,11.748,8.337v3.792a28.887,28.887,0,0,0-9.376,3.84l0-.005s-.244.151-.661.432l-.125.085c-2.827,1.919-12.3,8.929-11.979,16.5q-.019.437,0,.876a29.129,29.129,0,0,0-.78,6.68V226.3a27,27,0,0,0,5.794,16.744c-7.972,1.787-13.052,4.489-13.052,7.513a2.443,2.443,0,0,1,0,.764c0,5.38,16.077,9.741,35.909,9.741,2.4,0,4.74-.064,7.006-.186L406.5,279.016,370.592,336.7s-11.842,9.168-2.674,12.224,27.887,5.348,27.887,5.348,3.056-5.348-1.146-7.64-9.932-1.146-9.932-1.146l.764-4.584s62.268-53.482,49.28-71.818c-2.485-3.508-4.97-7.128-7.476-10.691l9.8.893,2.231,83.956.279-.091c-.56,1.649-4.52,14.1,4.258,11.991,9.4-2.255,26.5-10.209,26.5-10.209S470.126,338.777,465.347,339.054ZM427.894,194.591l-18.337-5.324V173.58l19.93,21.156C428.508,194.638,427.894,194.591,427.894,194.591Z" transform="translate(-341.177 -75.892)"/></g><circle cx="26.895" cy="26.895" r="26.895" transform="translate(82.257 10.092)"/><path class="j" d="M497.041,289.683l20.525,21.788a4.01,4.01,0,0,0,6.421-.8l22.734-40.788-6.35-2.241-18.677,26.895s-35.063-36.546-39.969-34.739S497.041,289.683,497.041,289.683Z" transform="translate(-357.259 -191.062)"/><line class="k" x1="30.257" y2="78.443" transform="translate(70.304 174.076)"/><line class="k" x2="30.257" y2="78.443" transform="translate(115.502 174.076)"/><path class="l" d="M35.113,0C54.5,0,70.226,4.265,70.226,9.525S54.5,19.051,35.113,19.051,0,14.786,0,9.525,15.721,0,35.113,0Z" transform="translate(72.918 165.111)"/><ellipse class="f" cx="35.113" cy="9.525" rx="35.113" ry="9.525" transform="translate(72.918 164.364)"/><line class="k" x2="33.129" y2="10.209" transform="translate(93.256 191.31)"/><line class="k" x1="33.129" y2="10.209" transform="translate(89.677 191.31)"/><path class="m" d="M242.633,182.016h10.424a20.918,20.918,0,0,1,20.918,20.918v55.284H214.209V210.44a28.424,28.424,0,0,1,28.424-28.424Z" transform="translate(-134.194 -114.026)"/><path class="b" d="M214.209,386.016h59.766v32.5H240.73a26.521,26.521,0,0,1-26.521-26.521Z" transform="translate(-134.194 -241.824)"/><path class="n" d="M366.074,288.955l36.547,34.725h40.342v-5.23l-34.739-10.086-29.716-36.7S365.013,280.005,366.074,288.955Z" transform="translate(-285.251 -198.538)"/><path class="j" d="M366.074,286.955l36.547,34.725h40.342v-5.23l-34.739-10.086-29.716-36.7S365.013,278.005,366.074,286.955Z" transform="translate(-285.251 -197.285)"/><path class="o" d="M572.012,394.909s19.424,1.494,14.195,5.229H572.012Z" transform="translate(-414.301 -275.743)"/><path class="o" d="M640.012,262.143s4.856-14.568,8.218-10.459-1.868,12.7-1.868,12.7Z" transform="translate(-456.9 -185.561)"/><path class="n" d="M214.209,386.016v1.743l59.766.124v-1.868Z" transform="translate(-134.193 -241.824)"/><path class="b" d="M480.79,499.67l40.2,3.664,2.181,82.094,14.393-4.686s21.526-93.011,1-100.851-42.714-18.164-55.961-9.75S480.79,499.67,480.79,499.67Z" transform="translate(-354.282 -320.909)"/><path class="g" d="M495.012,486.908s22.039,11.206,25.027,23.907" transform="translate(-366.063 -333.378)"/><path class="b" d="M425.748,508.434l31.377,25.4-35.113,56.4,14.568,4.109s60.887-52.3,48.187-70.225-25.4-38.848-41.089-39.222S425.748,508.434,425.748,508.434Z" transform="translate(-320.332 -332.117)"/><path class="n" d="M414.209,251.016l7.844,13.447,1.868-3.735Z" transform="translate(-259.485 -157.252)"/><path class="p" d="M411.919,766.908s-11.58,8.965-2.615,11.953,27.268,5.23,27.268,5.23,2.988-5.23-1.121-7.471-9.712-1.121-9.712-1.121l.747-4.482Z" transform="translate(-310.238 -508.786)"/><path class="p" d="M600.48,775.546s-5.087,14.106,4.1,11.9,25.909-9.983,25.909-9.983-.23-6.019-4.9-5.748-8.835,4.185-8.835,4.185l-2.013-4.993Z" transform="translate(-431.255 -511.292)"/><path class="o" d="M7.471,0a7.471,7.471,0,0,1,7.471,7.471v7.471A7.471,7.471,0,1,1,0,14.942V7.471A7.471,7.471,0,0,1,7.471,0Z" transform="translate(102.428 54.916)"/><path class="n" d="M431.483,224.908a7.471,7.471,0,0,0-7.471,7.471v2.538a23.909,23.909,0,0,0,14.942,0v-2.538a7.471,7.471,0,0,0-7.471-7.471Z" transform="translate(-321.584 -169.245)"/><circle class="o" cx="23.907" cy="23.907" r="23.907" transform="translate(85.992 18.309)"/><path class="n" d="M377.507,141.466s5.977,1.54,9.339-5.253,5.977-10.5,19.8-6.484,16.6,4.5,17.266.708c.454-2.594-4.461-8.894-7.619-12.624a8.844,8.844,0,0,0-6.742-2.905H393.942l-9.339,4.323-7.1,6.175-1.494,8.337Z" transform="translate(-291.514 -100.334)"/><path d="M377.507,139.466s5.977,1.54,9.339-5.253,5.977-10.5,19.8-6.484,16.6,4.5,17.266.708c.454-2.594-4.461-8.894-7.619-12.624a8.844,8.844,0,0,0-6.742-2.905H393.942l-9.339,4.323-7.1,6.175-1.494,8.337Z" transform="translate(-291.514 -99.082)"/><path class="o" d="M2.428,0C3.769,0,4.856,2.174,4.856,4.856S3.769,9.712,2.428,9.712,0,7.538,0,4.856,1.087,0,2.428,0Z" transform="translate(85.992 35.492)"/><path d="M375.611,108.943c-.554-3.127-1.1-6.411-.09-9.422a9.717,9.717,0,0,1,6.252-6.1c1.884-.579,3.914-.567,5.786-1.183,2.634-.867,4.7-2.881,6.988-4.448a23.032,23.032,0,0,1,6.607-3.118c2.115-.611,4.606-.847,6.33.523,1.451,1.153,1.955,3.13,3.154,4.543,1.4,1.645,3.563,2.358,5.456,3.393a16.639,16.639,0,0,1,8.446,13.01,2.294,2.294,0,0,1-.678,2.19,2.422,2.422,0,0,1-1.362.249c-9.555-.137-19.121-.274-28.636-1.151a68.7,68.7,0,0,0-8.89-.5,29.082,29.082,0,0,0-13.091,3.694" transform="translate(-288.926 -81.09)"/><rect class="f" width="57.557" height="22.498" rx="6" transform="translate(-45 243.028)"/><path class="e" d="M724.772,485.2a.561.561,0,1,0-.541-.56A.561.561,0,0,0,724.772,485.2Z" transform="translate(-509.659 -331.603)"/><line class="i" x2="38.848" y2="138.244" transform="translate(297.327 128.504)"/><rect class="q" width="209.782" height="8.175" transform="translate(126.55 124.455)"/><rect class="r" width="34.366" height="4.856" rx="2.428" transform="translate(178.257 122.527)"/><rect class="r" width="80.912" height="57.968" rx="9" transform="translate(199.087 69.67)"/><circle class="q" cx="2.615" cy="2.615" r="2.615" transform="translate(235.992 95.445)"/></g></g></svg>