<svg xmlns="http://www.w3.org/2000/svg" width="43.033" height="60.038" viewBox="0 0 43.033 60.038"><defs><style>.a{fill:#208e76;}</style></defs><path class="a" d="M43.871,23.744a7.8,7.8,0,0,0-4.438-13.557c0-.073,0-.143,0-.208a7.8,7.8,0,0,0-7.778-7.8,7.672,7.672,0,0,0-3.708.945A7.778,7.778,0,0,0,13.984,7.205,7.784,7.784,0,0,0,8.242,18.887,6.784,6.784,0,0,0,5.379,30.152,7.758,7.758,0,0,0,9.152,42.8a7.592,7.592,0,0,0,8.916,3.7l3.345,2.6v9.964a1,1,0,0,0,1,1h3.327a1,1,0,0,0,1-1V53.139l5.341-4.318a7.823,7.823,0,0,0,5.173-3.909,7.774,7.774,0,0,0,9.192-7.67A7.677,7.677,0,0,0,45.436,33.4a7.816,7.816,0,0,0-1.565-9.656ZM20.162,45.585a7.632,7.632,0,0,0,1.2-.948l.053,0v1.918Zm3.257,12.474V44.715a7.777,7.777,0,0,0,1.321,1.878V58.059Zm3.33-9.954a7.75,7.75,0,0,0,2.111.747l-2.111,1.707ZM43.43,33.978a5.624,5.624,0,0,1,1.013,3.262,5.786,5.786,0,0,1-5.767,5.794,5.656,5.656,0,0,1-1.687-.248.991.991,0,0,0-1.226.589,5.787,5.787,0,0,1-9.31,2.1.009.009,0,0,0-.005,0,5.749,5.749,0,0,1-1.56-2.384,1.045,1.045,0,0,0-1.412-.7,6.082,6.082,0,0,1-1.748.258l-.722-.023a1.2,1.2,0,0,0-.331.038,1.014,1.014,0,0,0-.471.288,5.757,5.757,0,0,1-9.272-1.071.856.856,0,0,0-.935-.9A5.782,5.782,0,0,1,7.5,30.874a1,1,0,0,0-.063-1.59,4.771,4.771,0,0,1,2.628-8.668,1,1,0,0,0,.7-1.7,5.776,5.776,0,0,1,4.19-9.771,1,1,0,0,0,1-1V7.827A5.771,5.771,0,0,1,26.771,4.986a1,1,0,0,0,.664.494.988.988,0,0,0,.807-.173,5.712,5.712,0,0,1,3.412-1.126,5.789,5.789,0,0,1,5.769,5.794,3.959,3.959,0,0,1-.09.955,1.044,1.044,0,0,0,.331.938,1.161,1.161,0,0,0,1.008.283,5.792,5.792,0,0,1,3,10.734,1,1,0,0,0,0,1.71,5.807,5.807,0,0,1,1.753,8.234A1,1,0,0,0,43.43,33.978Z" transform="translate(-3.418 -0.027)"/><path class="a" d="M21.408,10.752a1,1,0,0,0-.484,1.331,4.763,4.763,0,0,1,.444,2.021A4.929,4.929,0,0,1,13.442,18a.992.992,0,0,0-1.4.193,1,1,0,0,0,.193,1.4A6.932,6.932,0,0,0,23.376,14.1a6.709,6.709,0,0,0-.634-2.868A1,1,0,0,0,21.408,10.752Z" transform="translate(9.269 15.994)"/><path class="a" d="M15.905,7.419a5.653,5.653,0,0,0-5.473,4.333A5.583,5.583,0,0,0,6.686,19.74a5.551,5.551,0,0,0,.933,7.5,1,1,0,0,0,.637.231,1,1,0,0,0,.639-1.775,3.52,3.52,0,0,1-1.251-2.7,3.451,3.451,0,0,1,.988-2.455,1,1,0,0,0,.1-1.274,3.586,3.586,0,0,1,2.658-5.636,1,1,0,0,0,.918-.915,3.62,3.62,0,0,1,6.935-1.086,1,1,0,1,0,1.843-.79A5.636,5.636,0,0,0,15.905,7.419Z" transform="translate(-0.072 11.115)"/></svg>