<svg xmlns="http://www.w3.org/2000/svg" xmlns:xlink="http://www.w3.org/1999/xlink" width="301.257" height="205.296" viewBox="0 0 301.257 205.296"><defs><style>.a{fill:#3f3d56;}.b{fill:#76a375;}.c{fill:#0c5344;}.d{opacity:0.7;}.e{fill:url(#a);}.f{fill:#fd6d36;}.g{opacity:0.1;}.h{fill:#e0e0e0;}.i{fill:#2c1f19;}.j{fill:#c1856a;}.k{fill:#535461;}.l{fill:#fff;}.m{fill:#eee;}</style><linearGradient id="a" x1="0.5" y1="1" x2="0.5" gradientUnits="objectBoundingBox"><stop offset="0" stop-color="gray" stop-opacity="0.251"/><stop offset="0.535" stop-color="gray" stop-opacity="0.122"/><stop offset="1" stop-color="gray" stop-opacity="0.102"/></linearGradient></defs><g transform="translate(0 0)"><path class="a" d="M232.747,620.177c-2.166,8.248-9.756,13.4-9.756,13.4s-4.078-8.219-1.912-16.467,9.756-13.4,9.756-13.4S234.913,611.928,232.747,620.177Z" transform="translate(-187.521 -453.394)"/><path class="b" d="M234.514,636.586c-6.067,5.994-6.745,15.143-6.745,15.143s9.157-.568,15.224-6.562,6.745-15.143,6.745-15.143S240.581,630.592,234.514,636.586Z" transform="translate(-192.574 -471.548)"/><rect class="c" width="33.156" height="14.109" rx="7.055" transform="translate(21.104 177.77)"/><g class="d" transform="translate(252.286 163.673)"><path class="e" d="M953.225,651.869v-5.084H927.8V670.3a4.957,4.957,0,0,0,4.957,4.957h15.506a4.957,4.957,0,0,0,4.957-4.957v-5.211a6.609,6.609,0,1,0,0-13.218Zm0,10.676V654.41a4.067,4.067,0,1,1,0,8.134Z" transform="translate(-927.805 -646.785)"/></g><path class="f" d="M993.713,665.744a6.034,6.034,0,1,0,6.034,6.034A6.034,6.034,0,0,0,993.713,665.744Zm0,9.748a3.714,3.714,0,1,1,3.713-3.714A3.714,3.714,0,0,1,993.713,675.492Z" transform="translate(-716.825 -496.191)"/><path class="g" d="M993.713,665.744a6.034,6.034,0,1,0,6.034,6.034,6.349,6.349,0,0,0-.622-2.672A5.924,5.924,0,0,0,993.713,665.744Zm0,9.748a3.714,3.714,0,1,1,3.713-3.714A3.714,3.714,0,0,1,993.713,675.492Z" transform="translate(-716.825 -496.191)"/><path class="f" d="M818.016,531.776h23.209v22.971a3.024,3.024,0,0,1-3.024,3.024H821.039a3.024,3.024,0,0,1-3.024-3.024Z" transform="translate(-564.337 -366.865)"/><rect class="h" width="301.257" height="10.212" transform="translate(0 190.906)"/><g class="d" transform="translate(96.259 0)"><path class="e" d="M526.573,241.577c-3.229-11.72-21.534-20.278-35.307-22.176,0-.086.007-.172.007-.259V209.11l.044-.015v-.38a34.4,34.4,0,0,0,20.781-21.78,37.182,37.182,0,0,0,2.217-4.781c1.47-.535,2.581-2.96,2.581-5.873a10.255,10.255,0,0,0-.415-2.945,37.708,37.708,0,0,0,.276-4.472,37.27,37.27,0,0,0-12.31-27.719,7.271,7.271,0,0,0,.116-1.823c-.312-4.815-5.455-8.086-10.275-8.305A10.172,10.172,0,0,0,496,120.277c-3.074,4.478-9.384,4.954-14.815,4.989A4.443,4.443,0,0,0,483.223,119c-5.676,7.608-16.741,9.017-23.493,15.69a19.805,19.805,0,0,0-3.653,4.982,37.288,37.288,0,0,0-14.054,29.193,37.7,37.7,0,0,0,.271,4.431,10.223,10.223,0,0,0-.428,2.985c0,2.927,1.121,5.359,2.6,5.879a37.173,37.173,0,0,0,2.227,4.8,34.4,34.4,0,0,0,20.635,21.7v10.483c0,.081,0,.16.006.241-13.825,1.865-32.276,10.491-35.476,22.3-2.764,10.2-5.713,21.407-7.181,27.985,12.581,8.84,38.979,14.031,55.523,14.031,15.719,0,41.41-4.685,53.621-12.734C532.5,263.741,529.456,252.045,526.573,241.577Z" transform="translate(-424.678 -119)"/></g><path class="b" d="M484.457,501.878c15.163,0,39.947-4.519,51.726-12.284-1.276-6.973-4.211-18.256-6.993-28.353-3.543-12.86-25.9-21.775-39.242-21.775H477.094c-13.38,0-35.773,8.967-39.271,21.882-2.666,9.842-5.512,20.65-6.927,27C443.032,496.87,468.5,501.878,484.457,501.878Z" transform="translate(-332.709 -340.084)"/><path class="i" d="M36.046,0a36.144,36.144,0,0,1,34.5,25.56,35.594,35.594,0,0,1,1.549,10.487A36.116,36.116,0,0,1,60.432,62.592,36.046,36.046,0,1,1,36.046,0Z" transform="translate(114.919 14.966)"/><path class="g" d="M449.291,261.311h23.1v18.478a11.548,11.548,0,0,1-11.548,11.548h0a11.548,11.548,0,0,1-11.548-11.548V261.311Z" transform="translate(-309.96 -180.275)"/><path class="j" d="M452.6,258.553h16.471a3.313,3.313,0,0,1,3.313,3.313V277.03a11.548,11.548,0,0,1-11.548,11.548h0a11.548,11.548,0,0,1-11.548-11.548V261.866a3.313,3.313,0,0,1,3.313-3.313Z" transform="translate(-309.96 -178.372)"/><path class="g" d="M563.709,402.264a33.241,33.241,0,0,0,23.1.064V399.49h-23.1Z" transform="translate(-424.335 -312.506)"/><circle class="j" cx="33.106" cy="33.106" r="33.106" transform="translate(117.86 25.093)"/><path class="g" d="M525.046,191.035S539,219.355,578.355,202.9l-9.162-14.368-16.243-5.831Z" transform="translate(-397.662 -162.949)"/><path class="i" d="M525.046,189.692s13.952,28.32,53.309,11.87l-9.162-14.368-16.243-5.831Z" transform="translate(-397.662 -162.023)"/><path class="i" d="M523.109,151.229a19.125,19.125,0,0,1,4.74-7.71c6.513-6.437,17.187-7.8,22.663-15.135a4.286,4.286,0,0,1-1.963,6.045c5.239-.034,11.326-.493,14.291-4.813a9.813,9.813,0,0,1-1.655,10.362c4.65.211,9.611,3.367,9.912,8.012.2,3.095-1.74,6.024-4.283,7.8a23.808,23.808,0,0,1-8.648,3.257C549.327,160.994,517.341,169.163,523.109,151.229Z" transform="translate(-395.849 -125.474)"/><path class="i" d="M560.574,307.6H559.7l-17.076,15.2c-16.451-7.7-28.529,0-28.529,0l-17.909-14.577-1.806.227a33.1,33.1,0,1,0,66.2-.852ZM527.42,328.634c-6.44,0-11.661-1.305-11.661-2.915s5.221-2.915,11.661-2.915,11.661,1.305,11.661,2.915S533.86,328.634,527.42,328.634Z" transform="translate(-376.504 -249.114)"/><ellipse class="j" cx="3.08" cy="5.774" rx="3.08" ry="5.774" transform="translate(114.767 52.393)"/><ellipse class="j" cx="3.08" cy="5.774" rx="3.08" ry="5.774" transform="translate(180.987 52.393)"/><g class="d" transform="translate(86.571 117.131)"><rect class="e" width="128.116" height="73.774" rx="3"/></g><rect class="k" width="123.474" height="72.413" rx="4" transform="translate(88.892 118.493)"/><circle class="l" cx="4.178" cy="4.178" r="4.178" transform="translate(146.451 150.521)"/><rect class="h" width="275.727" height="4.178" transform="translate(12.765 201.118)"/><rect class="g" width="275.727" height="1.393" transform="translate(12.765 201.118)"/><path class="g" d="M983.6,650.776v21.469a4.526,4.526,0,0,1-4.526,4.526h2.321a4.526,4.526,0,0,0,4.526-4.526V650.776Z" transform="translate(-710.887 -485.865)"/><path class="m" d="M944.59,593.658a1.355,1.355,0,0,0-1.025.52c-.3.552.247,1.174.751,1.553a9.987,9.987,0,0,1,2.543,2.367,2.967,2.967,0,0,1,.14,3.28c-.9,1.224-3.055,1.487-3.264,2.993-.134.967.7,1.792,1.549,2.277,2.091,1.2,4.786,1.517,6.3,3.391a4.884,4.884,0,0,1,3.424-2.351c1.4-.318,2.848-.294,4.264-.51a1.474,1.474,0,0,0,1.176-.624c.4-.8-.732-1.767-.343-2.573.3-.614,1.167-.566,1.8-.812a2.348,2.348,0,0,0,1.168-2.8,5.278,5.278,0,0,0-2-2.593,22.363,22.363,0,0,0-8.041-3.717,20.607,20.607,0,0,0-4.274-.989A21.362,21.362,0,0,0,944.59,593.658Z" transform="translate(-686.332 -446.05)"/></g></svg>